<?xml version="1.0" standalone="no"?>
<!DOCTYPE svg PUBLIC "-//W3C//DTD SVG 20010904//EN"
 "http://www.w3.org/TR/2001/REC-SVG-20010904/DTD/svg10.dtd">
<svg version="1.0" xmlns="http://www.w3.org/2000/svg"
 width="512.000000pt" height="512.000000pt" viewBox="0 0 512.000000 512.000000"
 preserveAspectRatio="xMidYMid meet">

<g transform="translate(0.000000,512.000000) scale(0.100000,-0.100000)"
fill="#EA580C" stroke="none">
<path d="M381 5100 c-91 -24 -149 -57 -221 -126 -72 -69 -115 -142 -140 -238
-20 -78 -20 -106 -20 -2176 0 -2070 0 -2098 20 -2176 25 -96 68 -169 140 -238
73 -70 131 -102 225 -126 77 -20 111 -20 2175 -20 2070 0 2098 0 2176 20 96
25 169 68 238 140 70 73 102 131 126 225 20 77 20 111 20 2175 0 2064 0 2098
-20 2175 -24 94 -56 152 -126 225 -69 72 -142 115 -238 140 -78 20 -105 20
-2180 19 -2045 0 -2103 -1 -2175 -19z m2137 -707 c121 -180 255 -434 296 -560
l18 -53 221 0 222 0 91 123 c117 157 223 317 286 434 27 51 53 93 56 93 18 1
432 -146 432 -153 0 -10 -165 -237 -272 -374 -48 -62 -88 -115 -88 -118 0 -3
124 -5 275 -5 l275 0 0 -510 0 -510 -215 0 -215 0 0 310 0 310 -1340 0 -1340
0 0 -310 0 -310 -205 0 -205 0 0 510 0 510 287 2 286 3 -81 120 c-45 66 -120
169 -167 228 l-86 108 84 39 c46 21 129 59 183 85 l99 46 53 -58 c135 -147
288 -364 350 -495 l37 -78 263 0 263 0 -6 23 c-21 68 -162 327 -275 504 -8 12
-12 24 -10 27 4 3 346 139 367 145 1 1 29 -38 61 -86z m1126 -1379 c72 -53
133 -99 135 -101 13 -11 -229 -226 -387 -345 -131 -98 -298 -205 -464 -298
l-143 -80 805 -2 805 -3 3 -202 2 -203 -814 0 -815 0 -3 -427 c-3 -416 -4
-429 -25 -483 -29 -70 -90 -131 -166 -165 -104 -46 -204 -57 -542 -62 l-310
-5 -23 73 c-26 84 -83 201 -136 280 -20 29 -36 56 -36 59 0 3 182 4 405 2
l405 -3 0 365 0 366 -805 0 -805 0 0 205 0 205 805 0 805 0 0 140 0 140 98 0
c97 0 97 1 187 48 50 27 136 77 193 113 l103 64 -761 3 -760 2 0 195 0 195
1013 1 c556 1 1023 5 1037 9 49 16 64 9 194 -86z"/>
</g>
</svg>
