<svg version="1.1" id="Layer_1" xmlns="http://www.w3.org/2000/svg" xmlns:xlink="http://www.w3.org/1999/xlink" x="0px" y="0px"
	 width="100%" viewBox="0 0 192 192" enable-background="new 0 0 192 192" xml:space="preserve">
<path fill="none" opacity="1.000000" stroke="none" 
	d="
M96.000000,193.000000 
	C64.000000,193.000000 32.500004,193.000000 1.000004,193.000000 
	C1.000003,129.000000 1.000003,65.000008 1.000001,1.000013 
	C64.999992,1.000009 128.999985,1.000009 192.999969,1.000004 
	C192.999985,64.999985 192.999985,128.999969 193.000000,192.999969 
	C160.833328,193.000000 128.666672,193.000000 96.000000,193.000000 
M94.000000,86.500595 
	C94.000000,101.921577 94.000000,117.342560 94.000000,132.725906 
	C100.290535,132.725906 106.026581,132.725906 112.139984,132.725906 
	C112.139984,115.057098 112.139984,97.658813 112.139984,80.000282 
	C122.486069,80.000282 132.451553,79.869751 142.411499,80.048294 
	C148.576614,80.158806 153.986221,86.043137 153.995468,92.191185 
	C154.011734,103.015228 154.000000,113.839302 154.000000,124.663368 
	C154.000000,127.414513 154.000000,130.165665 154.000000,132.656738 
	C160.432556,132.656738 166.173859,132.656738 171.999969,132.656738 
	C171.999969,117.000290 172.019348,101.686821 171.963562,86.373619 
	C171.959045,85.135521 171.514847,83.876266 171.147064,82.665695 
	C166.801086,68.360451 155.650345,62.511906 142.058167,61.252163 
	C129.345016,60.073895 116.434952,60.875229 103.615471,61.067120 
	C99.040527,61.135597 93.296860,64.856606 93.905655,71.022766 
	C94.377846,75.805344 94.000000,80.671844 94.000000,86.500595 
M85.000000,75.389473 
	C84.721130,70.812843 86.126144,64.496002 83.695045,62.143612 
	C81.208954,59.738007 74.957039,60.972614 70.361046,61.050926 
	C60.467140,61.219498 50.420734,60.693901 40.728043,62.257797 
	C29.435509,64.079826 20.675076,72.920464 21.864189,85.501793 
	C22.597403,93.259499 22.000000,101.142960 22.000000,108.969963 
	C22.000000,116.900566 22.000000,124.831161 22.000000,132.729218 
	C28.283443,132.729218 34.019749,132.729218 40.000000,132.729218 
	C40.000000,117.331764 39.998512,102.203712 40.000755,87.075661 
	C40.001621,81.220818 41.201355,80.014885 47.165737,80.005348 
	C58.656410,79.986969 70.149055,79.884857 81.636543,80.076973 
	C84.690353,80.128044 85.396187,78.970161 85.000000,75.389473 
z"/>
<path fill="#FFF" opacity="1.000000" stroke="none" 
	d="
M94.000000,86.000824 
	C94.000000,80.671844 94.377846,75.805344 93.905655,71.022766 
	C93.296860,64.856606 99.040527,61.135597 103.615471,61.067120 
	C116.434952,60.875229 129.345016,60.073895 142.058167,61.252163 
	C155.650345,62.511906 166.801086,68.360451 171.147064,82.665695 
	C171.514847,83.876266 171.959045,85.135521 171.963562,86.373619 
	C172.019348,101.686821 171.999969,117.000290 171.999969,132.656738 
	C166.173859,132.656738 160.432556,132.656738 154.000000,132.656738 
	C154.000000,130.165665 154.000000,127.414513 154.000000,124.663368 
	C154.000000,113.839302 154.011734,103.015228 153.995468,92.191185 
	C153.986221,86.043137 148.576614,80.158806 142.411499,80.048294 
	C132.451553,79.869751 122.486069,80.000282 112.139984,80.000282 
	C112.139984,97.658813 112.139984,115.057098 112.139984,132.725906 
	C106.026581,132.725906 100.290535,132.725906 94.000000,132.725906 
	C94.000000,117.342560 94.000000,101.921577 94.000000,86.000824 
z"/>
<path fill="#FFF" opacity="1.000000" stroke="none" 
	d="
M85.000000,75.872688 
	C85.396187,78.970161 84.690353,80.128044 81.636543,80.076973 
	C70.149055,79.884857 58.656410,79.986969 47.165737,80.005348 
	C41.201355,80.014885 40.001621,81.220818 40.000755,87.075661 
	C39.998512,102.203712 40.000000,117.331764 40.000000,132.729218 
	C34.019749,132.729218 28.283443,132.729218 22.000000,132.729218 
	C22.000000,124.831161 22.000000,116.900566 22.000000,108.969963 
	C22.000000,101.142960 22.597403,93.259499 21.864189,85.501793 
	C20.675076,72.920464 29.435509,64.079826 40.728043,62.257797 
	C50.420734,60.693901 60.467140,61.219498 70.361046,61.050926 
	C74.957039,60.972614 81.208954,59.738007 83.695045,62.143612 
	C86.126144,64.496002 84.721130,70.812843 85.000000,75.872688 
z"/>
</svg>